<svg width="150" height="40" viewBox="0 0 150 40" fill="none" xmlns="http://www.w3.org/2000/svg">
<path d="M34.1422 5.85781C30.3647 2.08031 25.3422 0 20 0C14.6578 0 9.63531 2.08031 5.85781 5.85781C2.08031 9.63531 0 14.6578 0 20C0 25.3422 2.08039 30.3646 5.85781 34.1422C9.63524 37.9198 14.6578 40 20 40C25.3422 40 30.3647 37.9197 34.1422 34.1422C37.9197 30.3647 40 25.3422 40 20C40 14.6578 37.9196 9.63539 34.1422 5.85781Z" fill="#33CC95"/>
<path d="M67.4076 12.248V14.96H62.9436V29H59.5836V14.96H55.1196V12.248H67.4076ZM68.9951 22.304C68.9951 20.96 69.2591 19.768 69.7871 18.728C70.3311 17.688 71.0591 16.888 71.9711 16.328C72.8991 15.768 73.9311 15.488 75.0671 15.488C76.0591 15.488 76.9231 15.688 77.6591 16.088C78.4111 16.488 79.0111 16.992 79.4591 17.6V15.704H82.8431V29H79.4591V27.056C79.0271 27.68 78.4271 28.2 77.6591 28.616C76.9071 29.016 76.0351 29.216 75.0431 29.216C73.9231 29.216 72.8991 28.928 71.9711 28.352C71.0591 27.776 70.3311 26.968 69.7871 25.928C69.2591 24.872 68.9951 23.664 68.9951 22.304ZM79.4591 22.352C79.4591 21.536 79.2991 20.84 78.9791 20.264C78.6591 19.672 78.2271 19.224 77.6831 18.92C77.1391 18.6 76.5551 18.44 75.9311 18.44C75.3071 18.44 74.7311 18.592 74.2031 18.896C73.6751 19.2 73.2431 19.648 72.9071 20.24C72.5871 20.816 72.4271 21.504 72.4271 22.304C72.4271 23.104 72.5871 23.808 72.9071 24.416C73.2431 25.008 73.6751 25.464 74.2031 25.784C74.7471 26.104 75.3231 26.264 75.9311 26.264C76.5551 26.264 77.1391 26.112 77.6831 25.808C78.2271 25.488 78.6591 25.04 78.9791 24.464C79.2991 23.872 79.4591 23.168 79.4591 22.352ZM102.637 15.512C104.269 15.512 105.581 16.016 106.573 17.024C107.581 18.016 108.085 19.408 108.085 21.2V29H104.725V21.656C104.725 20.616 104.461 19.824 103.933 19.28C103.405 18.72 102.685 18.44 101.773 18.44C100.861 18.44 100.133 18.72 99.5888 19.28C99.0608 19.824 98.7968 20.616 98.7968 21.656V29H95.4368V21.656C95.4368 20.616 95.1728 19.824 94.6448 19.28C94.1168 18.72 93.3968 18.44 92.4848 18.44C91.5568 18.44 90.8208 18.72 90.2768 19.28C89.7488 19.824 89.4848 20.616 89.4848 21.656V29H86.1248V15.704H89.4848V17.312C89.9168 16.752 90.4688 16.312 91.1408 15.992C91.8288 15.672 92.5808 15.512 93.3968 15.512C94.4368 15.512 95.3648 15.736 96.1808 16.184C96.9968 16.616 97.6288 17.24 98.0768 18.056C98.5088 17.288 99.1328 16.672 99.9488 16.208C100.781 15.744 101.677 15.512 102.637 15.512ZM123.633 22.064C123.633 22.544 123.601 22.976 123.537 23.36H113.817C113.897 24.32 114.233 25.072 114.825 25.616C115.417 26.16 116.145 26.432 117.009 26.432C118.257 26.432 119.145 25.896 119.673 24.824H123.297C122.913 26.104 122.177 27.16 121.089 27.992C120.001 28.808 118.665 29.216 117.081 29.216C115.801 29.216 114.649 28.936 113.625 28.376C112.617 27.8 111.825 26.992 111.249 25.952C110.689 24.912 110.409 23.712 110.409 22.352C110.409 20.976 110.689 19.768 111.249 18.728C111.809 17.688 112.593 16.888 113.601 16.328C114.609 15.768 115.769 15.488 117.081 15.488C118.345 15.488 119.473 15.76 120.465 16.304C121.473 16.848 122.249 17.624 122.793 18.632C123.353 19.624 123.633 20.768 123.633 22.064ZM120.153 21.104C120.137 20.24 119.825 19.552 119.217 19.04C118.609 18.512 117.865 18.248 116.985 18.248C116.153 18.248 115.449 18.504 114.873 19.016C114.313 19.512 113.969 20.208 113.841 21.104H120.153ZM129.446 17.768C129.878 17.064 130.438 16.512 131.126 16.112C131.83 15.712 132.63 15.512 133.526 15.512V19.04H132.638C131.582 19.04 130.782 19.288 130.238 19.784C129.71 20.28 129.446 21.144 129.446 22.376V29H126.086V15.704H129.446V17.768ZM148.341 15.704V29H144.957V27.32C144.525 27.896 143.957 28.352 143.253 28.688C142.565 29.008 141.813 29.168 140.997 29.168C139.957 29.168 139.037 28.952 138.237 28.52C137.437 28.072 136.805 27.424 136.341 26.576C135.893 25.712 135.669 24.688 135.669 23.504V15.704H139.029V23.024C139.029 24.08 139.293 24.896 139.821 25.472C140.349 26.032 141.069 26.312 141.981 26.312C142.909 26.312 143.637 26.032 144.165 25.472C144.693 24.896 144.957 24.08 144.957 23.024V15.704H148.341Z" fill="#F4F4F4"/>
<g clip-path="url(#clip0)">
<path d="M20.5714 8V33.1429" stroke="white" stroke-width="2" stroke-linecap="round" stroke-linejoin="round"/>
<path d="M26.2857 12.5714H17.7143C16.6534 12.5714 15.636 12.9929 14.8859 13.743C14.1357 14.4931 13.7143 15.5106 13.7143 16.5714C13.7143 17.6323 14.1357 18.6497 14.8859 19.3999C15.636 20.15 16.6534 20.5714 17.7143 20.5714H23.4286C24.4894 20.5714 25.5069 20.9929 26.257 21.743C27.0072 22.4932 27.4286 23.5106 27.4286 24.5714C27.4286 25.6323 27.0072 26.6497 26.257 27.3999C25.5069 28.15 24.4894 28.5714 23.4286 28.5714H13.7143" stroke="white" stroke-width="2" stroke-linecap="round" stroke-linejoin="round"/>
</g>
<defs>
<clipPath id="clip0">
<rect width="27.4286" height="27.4286" fill="white" transform="translate(6.85715 6.85714)"/>
</clipPath>
</defs>
</svg>
